#!OML:ASF F:\VICON\USERDATA\INSTALL\rory3\rory3.ASF
:FULLY-SPECIFIED
:DEGREES
244
root 0.860442 15.6045 -14.8183 -2.49279 -5.92544 2.57317
lowerback 15.769 0.904962 3.16868
upperback 0.370367 2.06866 3.43043
thorax -8.49125 0.941212 1.4207
lowerneck -21.1855 -2.77601 -8.63964
upperneck 9.69357 -1.96343 4.47894
head 6.50013 -0.889443 2.61764
rclavicle -2.98177e-015 1.74931e-014
rhumerus -29.7485 -6.95151 -75.9041
rradius 47.4016
rwrist 0.49701
rhand -19.4454 7.67652
rfingers 7.12502
rthumb 6.87517 -22.1918
lclavicle -2.98177e-015 1.74931e-014
lhumerus -44.8858 12.1989 84.4932
lradius 64.9481
lwrist 7.23376
lhand -29.3331 20.7863
lfingers 7.12502
lthumb -2.67345 50.7493
rfemur -22.9725 0.260953 16.8852
rtibia 66.2215
rfoot -30.2717 -14.5018
rtoes -15.2512
lfemur -21.7859 5.22511 -21.4312
ltibia 62.5041
lfoot -33.1693 7.99704
ltoes -8.28745
245
root 0.885622 15.5515 -14.8314 -2.52668 -6.05988 2.77319
lowerback 15.8907 0.95774 3.26636
upperback 0.632329 2.1572 3.53614
thorax -8.27599 0.98484 1.45697
lowerneck -21.8293 -2.74999 -8.50964
upperneck 9.45703 -1.85943 4.19128
head 6.51288 -0.850086 2.51155
rclavicle -2.40529e-014 -2.38542e-014
rhumerus -28.3229 -11.0684 -75.3458
rradius 45.5611
rwrist 3.50483
rhand -19.356 7.89682
rfingers 7.12502
rthumb 6.9615 -21.9687
lclavicle -2.40529e-014 -2.38542e-014
lhumerus -43.5734 13.4463 84.9363
lradius 63.1148
lwrist 7.6492
lhand -29.7121 21.0582
lfingers 7.12502
lthumb -3.03943 51.0163
rfemur -23.4692 -0.0488731 16.5236
rtibia 67.175
rfoot -30.9667 -14.1809
rtoes -14.9628
lfemur -22.502 4.90539 -21.9064
ltibia 63.5467
lfoot -33.096 8.753
ltoes -8.26446
246
root 0.90742 15.5135 -14.8321 -2.53801 -6.23867 2.89718
lowerback 15.9275 1.08968 3.49357
upperback 0.882212 2.36393 3.58488
thorax -8.01927 1.08026 1.3335
lowerneck -22.3508 -2.81022 -8.58087
upperneck 9.00821 -1.87851 4.2824
head 6.45046 -0.841907 2.54749
rclavicle -2.96189e-014 -1.59028e-015
rhumerus -27.5906 -14.9515 -75.0155
rradius 44.7603
rwrist 5.56766
rhand -19.367 8.80996
rfingers 7.12502
rthumb 6.95088 -21.0559
lclavicle -2.96189e-014 -1.59028e-015
lhumerus -41.9844 13.8549 85.5504
lradius 61.0034
lwrist 8.0134
lhand -30.2937 21.0157
lfingers 7.12502
lthumb -3.60109 50.965
rfemur -23.7646 -0.219092 16.2426
rtibia 67.658
rfoot -31.0472 -14.2944
rtoes -15.2663
lfemur -22.926 4.66554 -22.225
ltibia 64.209
lfoot -32.9335 9.16284
ltoes -8.31189
247
root 0.920548 15.5062 -14.8213 -2.48243 -6.60731 3.03546
lowerback 15.9103 1.24185 3.58258
upperback 1.00113 2.57441 3.61
thorax -7.87828 1.18105 1.26356
lowerneck -22.6885 -2.80012 -8.52531
upperneck 8.58831 -1.86236 4.40654
head 6.36531 -0.811357 2.5791
rclavicle -1.03368e-014 -9.54166e-015
rhumerus -27.5082 -17.4598 -75.0389
rradius 44.833
rwrist 5.69434
rhand -19.2572 10.1488
rfingers 7.12502
rthumb 7.05684 -19.7136
lclavicle -1.03368e-014 -9.54166e-015
lhumerus -40.5466 13.6278 86.1324
lradius 58.855
lwrist 8.78658
lhand -31.2445 22.4243
lfingers 7.12502
lthumb -4.51925 52.3561
rfemur -23.9732 0.187637 16.0114
rtibia 67.8087
rfoot -30.9399 -14.6387
rtoes -15.9666
lfemur -23.0526 4.63602 -22.4583
ltibia 64.4599
lfoot -32.9787 9.40255
ltoes -8.12878
248
root 0.929587 15.5131 -14.812 -2.33717 -7.20851 2.9947
lowerback 16.0335 1.41885 3.6954
upperback 0.918863 2.84965 3.72109
thorax -8.03727 1.30877 1.25503
lowerneck -22.8885 -2.77186 -8.33293
upperneck 8.39386 -1.852 4.34615
head 6.32938 -0.800149 2.52865
rclavicle -1.78906e-014 -4.77083e-015
rhumerus -27.6242 -18.6535 -75.2936
rradius 45.0535
rwrist 4.50918
rhand -19.6658 11.4408
rfingers 7.12502
rthumb 6.66248 -18.4344
lclavicle -1.78906e-014 -4.77083e-015
lhumerus -39.7842 12.993 86.6736
lradius 57.2925
lwrist 8.95979
lhand -30.7922 23.5948
lfingers 7.12502
lthumb -4.08246 53.5355
rfemur -24.147 1.22285 16.1103
rtibia 67.7537
rfoot -30.9588 -14.8446
rtoes -16.4518
lfemur -23.0281 4.97404 -22.4097
ltibia 64.3689
lfoot -33.0484 9.75281
ltoes -8.3425
249
root 0.940939 15.5234 -14.8032 -2.13789 -7.87456 3.10608
lowerback 16.1997 1.6505 3.57312
upperback 0.710066 3.16972 3.87233
thorax -8.37361 1.46466 1.40929
lowerneck -22.99 -2.78722 -8.3311
upperneck 8.29166 -1.85733 4.31024
head 6.31141 -0.803467 2.51521
rclavicle 4.1546e-014 4.77083e-014
rhumerus -27.6624 -18.9433 -75.5393
rradius 45.2802
rwrist 2.41226
rhand -20.1287 11.7415
rfingers 7.12502
rthumb 6.21556 -18.1473
lclavicle 4.1546e-014 4.77083e-014
lhumerus -39.5324 11.8322 87.546
lradius 56.4288
lwrist 8.96557
lhand -32.0333 25.5304
lfingers 7.12502
lthumb -5.28093 55.4446
rfemur -24.2733 2.3999 16.081
rtibia 67.5061
rfoot -30.9454 -14.9582
rtoes -15.4853
lfemur -22.936 5.40828 -22.531
ltibia 63.9852
lfoot -33.0843 9.87896
ltoes -8.85843
250
root 0.954266 15.5621 -14.7806 -1.95533 -8.55901 3.35581
lowerback 16.123 1.83784 3.29625
upperback 0.488961 3.39167 4.04933
thorax -8.60076 1.58315 1.70616
lowerneck -22.4499 -2.7139 -8.71001
upperneck 7.84835 -1.7301 4.59083
head 6.08249 -0.72987 2.68152
rclavicle 1.19271e-014 5.24792e-014
rhumerus -27.6579 -18.2868 -75.9758
rradius 45.7414
rwrist -0.131135
rhand -20.3317 11.1629
rfingers 7.12502
rthumb 6.01957 -18.7316
lclavicle 1.19271e-014 5.24792e-014
lhumerus -39.7203 11.3207 88.0304
lradius 55.5207
lwrist 8.03076
lhand -29.3354 20.7655
lfingers 7.12502
lthumb -2.67561 50.7285
rfemur -24.2402 3.41016 15.8715
rtibia 66.9445
rfoot -30.6123 -15.3667
rtoes -14.6882
lfemur -22.6619 5.90136 -22.8401
ltibia 63.3048
lfoot -32.9331 9.95108
ltoes -9.20843
251
root 0.969986 15.634 -14.7414 -1.67695 -9.19085 3.44776
lowerback 15.7542 1.91872 3.30663
upperback 0.283511 3.50124 4.16223
thorax -8.6262 1.63808 1.80622
lowerneck -22.0749 -2.57935 -8.90284
upperneck 7.65626 -1.55083 4.76201
head 5.95393 -0.636198 2.78829
rclavicle -1.37161e-014 -3.18055e-015
rhumerus -27.6574 -17.269 -76.7351
rradius 46.2875
rwrist -2.48699
rhand -20.5193 11.009
rfingers 7.12502
rthumb 5.83846 -18.8906
lclavicle -1.37161e-014 -3.18055e-015
lhumerus -40.2464 10.6926 88.4665
lradius 55.3981
lwrist 6.90592
lhand -28.1327 20.0829
lfingers 7.12502
lthumb -1.51409 50.0573
rfemur -24.0977 4.17953 15.7792
rtibia 66.0642
rfoot -30.1897 -15.6706
rtoes -14.5971
lfemur -22.3102 6.34771 -23.0191
ltibia 62.3704
lfoot -32.6362 10.0058
ltoes -9.24276
